<?xml version="1.0" encoding="utf-8"?>
<!-- Generator: Adobe Illustrator 19.2.0, SVG Export Plug-In . SVG Version: 6.00 Build 0)  -->
<svg version="1.1" id="Layer_1" xmlns="http://www.w3.org/2000/svg" xmlns:xlink="http://www.w3.org/1999/xlink" x="0px" y="0px"
	 viewBox="0 0 78 78" enable-background="new 0 0 78 78" xml:space="preserve">
<g>
	<path fill="#3E3D3B" d="M2.3,22.1v18c0,4.1,3.1,7.5,6.8,7.5H47c-0.3-1.1-0.3-2.3-0.3-3.4c0-0.8,0.1-1.6,0.3-2.3l7.6-6.1
		c1.2-0.4,2.4-0.7,3.7-0.7c0.5,0,1.1,0.1,1.6,0.1c0.1,0,0-2.9,0-3V22.1c0-4.1-3.1-7.5-6.8-7.5H9.1C5.4,14.7,2.3,18,2.3,22.1z"/>
	<path fill="#3E3D3B" d="M59.7,34.5C58.8,34.2,58,34,57.1,34c0,0-0.1,0-0.1,0v10.4H43.1c0,0.5,0,1,0,1.4c0.1,1.2,0.4,2.3,0.8,3.4
		h12.7c2.9,0,5.2-2.3,5.2-5.2v-8.6C61.1,35,60.4,34.7,59.7,34.5z"/>
	<path fill="#22AEEB" d="M75.6,62.9l-9.2-9.2c0.7-1,1.2-2,1.6-3.2c1.9-6-0.9-12.3-6.2-15.1c-0.7-0.3-1.4-0.6-2.1-0.9
		C58.8,34.2,58,34,57.1,34c0,0-0.1,0-0.1,0c-1.3-0.1-2.6,0-3.9,0.3c-4.3,1-7.9,4.1-9.4,8.6c-0.2,0.5-0.3,1-0.4,1.6
		c0,0.1,0,0.2-0.1,0.3c-0.1,0.4-0.1,0.8-0.1,1.1c0,0.2,0,0.3,0,0.5c0,0.8,0,1.6,0.2,2.4c0.1,0.9,0.3,1.7,0.7,2.5
		c1.3,3.5,4.2,6.4,8.1,7.7c1.3,0.4,2.6,0.6,3.8,0.6c2.5,0,5-0.8,7.1-2.2l5.8,5.8c0.2,0.2,0.5,0.3,0.8,0.3h5.9
		C75.7,63.3,75.8,63.1,75.6,62.9z M53.2,55c-2.1-0.7-3.8-2.1-4.9-3.9c-0.4-0.6-0.6-1.2-0.8-1.9c-0.1-0.2-0.1-0.4-0.2-0.6
		c-0.2-0.8-0.3-1.6-0.2-2.4c0-0.5,0.1-1.1,0.2-1.6c0-0.1,0-0.2,0.1-0.3c0-0.1,0.1-0.2,0.1-0.3c0.9-2.8,3-4.8,5.6-5.7
		c0.9-0.3,1.8-0.5,2.8-0.5c0.3,0,0.7,0,1.1,0.1c0,0,0.1,0,0.1,0c0.5,0.1,1,0.2,1.4,0.3c1.3,0.4,2.4,1.1,3.3,1.9
		c2.4,2.2,3.5,5.7,2.4,9.1C62.7,53.9,57.8,56.4,53.2,55z"/>
	<rect x="2.3" y="23.7" fill="#22AEEB" width="57.6" height="5"/>
</g>
</svg>
