<?xml version="1.0" standalone="no"?>
<!DOCTYPE svg PUBLIC "-//W3C//DTD SVG 20010904//EN"
 "http://www.w3.org/TR/2001/REC-SVG-20010904/DTD/svg10.dtd">
<svg version="1.0" xmlns="http://www.w3.org/2000/svg"
 width="700.000000pt" height="700.000000pt" viewBox="0 0 700.000000 700.000000"
 preserveAspectRatio="xMidYMid meet">
<metadata>
Created by potrace 1.11, written by Peter Selinger 2001-2013
</metadata>
<g transform="translate(0.000000,700.000000) scale(0.100000,-0.100000)"
fill="#000000" stroke="none">
<path d="M700 5674 c-260 -69 -444 -282 -487 -567 -4 -23 -6 -433 -6 -912 0
-652 3 -885 13 -930 48 -236 207 -427 425 -511 49 -18 97 -19 1637 -22 1499
-2 1588 -3 1589 -20 2 -50 46 -247 64 -288 53 -119 114 -234 153 -288 98 -135
279 -289 430 -365 50 -25 190 -78 230 -86 186 -40 377 -41 517 -3 144 38 275
93 354 145 l34 23 268 -267 c170 -170 278 -270 296 -275 15 -4 148 -8 295 -7
276 0 278 1 278 40 0 5 -187 196 -416 425 l-415 415 21 32 c12 18 43 77 70
132 218 451 88 1013 -311 1349 -72 61 -211 143 -311 185 l-48 20 -1 78 c0 43
-2 317 -4 608 -1 292 -5 537 -7 545 -3 8 -8 33 -13 54 -23 115 -105 256 -201
345 -75 70 -197 134 -289 150 -41 8 -681 11 -2085 10 -1731 -1 -2033 -3 -2080
-15z m4407 -2078 c4 -4 8 -137 8 -294 l0 -287 -427 0 c-235 0 -429 3 -432 5
-8 8 45 131 89 205 45 76 146 186 216 233 102 69 230 121 344 139 17 3 31 6
32 7 7 6 163 -1 170 -8z m493 -253 c122 -137 188 -304 195 -488 3 -89 0 -122
-19 -214 -61 -290 -319 -538 -619 -596 -91 -18 -262 -13 -345 9 -219 59 -422
229 -511 429 -52 115 -102 102 403 103 392 0 448 2 501 18 157 46 265 150 316
305 20 59 23 87 23 273 1 115 4 208 8 208 3 0 25 -21 48 -47z"/>
</g>
</svg>
