<?xml version="1.0" encoding="utf-8"?>
<!-- Generator: Adobe Illustrator 19.2.0, SVG Export Plug-In . SVG Version: 6.00 Build 0)  -->
<svg version="1.1" id="Layer_1" xmlns="http://www.w3.org/2000/svg" xmlns:xlink="http://www.w3.org/1999/xlink" x="0px" y="0px"
	 viewBox="0 0 446.3 48.7" enable-background="new 0 0 446.3 48.7" xml:space="preserve">
<g>
	<path fill="#3A3B3F" d="M229.9,15.9h-5.6c0.9-6,5.9-8.5,10.5-8.5c5.7,0,11.5,3.8,11.5,11.5c0,7.6-5.8,11.5-11.5,11.4
		c-4.8,0-9.8-2.5-10.6-8.8h5.6c0.6,2.4,2.6,3.6,5,3.6c2.5,0,4.5-1.6,5.3-3.7h-7.3v-4.8h7.4c-0.7-2.4-2.8-3.9-5.3-3.9
		C232.4,12.6,230.7,13.7,229.9,15.9z"/>
	<path fill="#3A3B3F" d="M250.6,30.1V7.7c1.9,0,3.8,0,5.8,0v8.5h0.4c5.7,0,5.4-4.3,5.4-8.5c2,0,3.9,0,5.9,0c0,4.6,0.1,8.8-4.3,11.7
		l6.1,9.9v0.9h-6.4l-4.9-8.7c-0.8,0.1-1.5,0.1-2.2,0.1v8.6C254.4,30.1,252.5,30.1,250.6,30.1z"/>
	<path fill="#3A3B3F" d="M283.4,7.4c4.6,0,9.7,2.5,10.5,8.5c-2,0-3.7,0-5.6,0c-0.8-2.3-2.5-3.3-4.9-3.3c-3.4,0-5.6,2.5-5.6,6.2
		c0,3.3,2.2,6.2,5.6,6.2c2.4,0,4.4-1.2,5-3.6c1.9,0,3.7,0,5.6,0c-0.8,6.3-5.9,8.8-10.6,8.8c-5.7,0-11.5-3.8-11.5-11.4
		C271.9,11.3,277.7,7.4,283.4,7.4z"/>
	<path fill="#3A3B3F" d="M317,30.1c-2,0-3.9,0-5.9,0V13h-6.9v17.1c-2,0-3.9,0-5.9,0V7.7c1.9,0,3.9,0,18.6,0V30.1z"/>
	<path fill="#3A3B3F" d="M336.8,12.8c-3.3,0-5,0-8.3,0V16h7.6c0,1.7,0,3.4,0,5.1h-7.6c0,1.3,0,2.6,0,3.9c3.3,0,5.2,0,8.6,0
		c0,1.7,0,3.4,0,5.1c-5.3,0-9.1,0-14.3,0c0-7.5,0-15,0-22.4c5.2,0,8.7,0,14,0C336.8,9.3,336.8,11.1,336.8,12.8z"/>
	<path fill="#3A3B3F" d="M342,30.1c0-7.5,0-14.9,0-22.4c3.2,0,6.6,0,9.9,0c10.7,0,10.7,16.7,0,16.7h-4.1v5.7
		C345.8,30.1,343.9,30.1,342,30.1z M351.8,12.8c-1.3,0-2.8,0-4.1,0c0,1.8,0,4.6,0,6.4h4.1C355,19.2,355.1,12.8,351.8,12.8z"/>
	<path fill="#3A3B3F" d="M362,12.8c0-1.7,0-3.4,0-5.1h16.7c0,1.7,0,3.4,0,5.1h-5.5v17.3c-1.9,0-3.8,0-5.7,0V12.8H362z"/>
	<path fill="#3A3B3F" d="M384.3,30.1h-2V7.7c2,0,3.9,0,5.9,0v11l11.3-11.1h2.1v22.5c-2,0-3.9,0-5.9,0v-11L384.3,30.1z"/>
	<path fill="#3A3B3F" d="M406.4,13.3c-0.2-4.1,3.2-6.1,7.1-6.1c4.9,0,7.4,3.2,7.4,6.5c0,1.5-0.6,3.2-2,4.2c2.3,1.2,3.2,3,3.2,5.5
		c0,4-2.9,7-8.6,7c-4.9,0-7.8-2.7-7.8-7.7h5c0,1.8,1.2,2.9,2.8,2.9c3.8,0,3.8-5.1,0-5.1h-1.6v-4.7h1.5c2.8,0,2.8-3.9,0.1-3.9
		c-1.2,0-2,0.5-2,1.3H406.4z"/>
	<path fill="#3A3B3F" d="M439.3,27.3h-8.8l-1.3,2.8h-5.6v-0.8l10.1-21.9h2.5l10.1,21.9v0.8h-5.6L439.3,27.3z M434.9,16.5l-2.5,5.9
		h5.1L434.9,16.5z"/>
</g>
<path fill="#3E3D3B" d="M0,7.5v18C0,29.6,3.1,33,6.8,33h37.9c-0.3-1.1-0.3-2.3-0.3-3.4c0-0.8,0.1-1.6,0.3-2.3l7.6-6.1
	c1.2-0.4,2.4-0.7,3.7-0.7c0.5,0,1.1,0.1,1.6,0.1c0.1,0,0-2.9,0-3V7.5c0-4.1-3.1-7.5-6.8-7.5H6.8C3.1,0,0,3.3,0,7.5z"/>
<path fill="#3E3D3B" d="M57.4,19.8c-0.9-0.3-1.8-0.5-2.6-0.5c0,0-0.1,0-0.1,0v10.4H40.8c0,0.5,0,1,0,1.4c0.1,1.2,0.4,2.3,0.8,3.4
	h12.7c2.9,0,5.2-2.3,5.2-5.2v-8.6C58.8,20.4,58.1,20.1,57.4,19.8z"/>
<g>
	<path fill="#3A3B3F" d="M76.3,30.1V7.7c1.9,0,3.8,0,5.8,0v8.5h0.4c5.7,0,5.4-4.3,5.4-8.5c2,0,3.9,0,5.9,0c0,4.6,0.1,8.8-4.3,11.7
		l6.1,9.9v0.9h-6.4l-4.9-8.7c-0.8,0.1-1.5,0.1-2.2,0.1v8.6C80.1,30.1,78.2,30.1,76.3,30.1z"/>
	<path fill="#3A3B3F" d="M98.9,30.1c0-7.5,0-14.9,0-22.4c3.2,0,6.6,0,9.9,0c10.7,0,10.7,16.7,0,16.7h-4.1v5.7
		C102.7,30.1,100.8,30.1,98.9,30.1z M108.7,12.8c-1.3,0-2.8,0-4.1,0c0,1.8,0,4.6,0,6.4h4.1C111.9,19.2,112.1,12.8,108.7,12.8z"/>
	<path fill="#3A3B3F" d="M135.1,12.8c-3.3,0-5,0-8.3,0V16h7.6c0,1.7,0,3.4,0,5.1h-7.6c0,1.3,0,2.6,0,3.9c3.3,0,5.2,0,8.6,0
		c0,1.7,0,3.4,0,5.1c-5.3,0-9.1,0-14.3,0c0-7.5,0-15,0-22.4c5.2,0,8.7,0,14,0C135.1,9.3,135.1,11.1,135.1,12.8z"/>
	<path fill="#3A3B3F" d="M142.3,32.6h-4.7v-7.5h2.3l7.7-17.7h2.5l7.9,17.7h2.3v7.5h-4.7v-2.5h-13.3V32.6z M145.6,25.1h6.3l-3.2-8.1
		L145.6,25.1z"/>
	<path fill="#3A3B3F" d="M165.2,30.1h-2V7.7c2,0,3.9,0,5.9,0v11l11.3-11.1h2.1v22.5c-2,0-3.9,0-5.9,0v-11L165.2,30.1z"/>
	<path fill="#3A3B3F" d="M186,12.8c0-1.7,0-3.4,0-5.1h16.7c0,1.7,0,3.4,0,5.1h-5.5v17.3c-1.9,0-3.8,0-5.7,0V12.8H186z"/>
</g>
<path fill="#22AEEB" d="M73.3,48.2L64.1,39c0.7-1,1.2-2,1.6-3.2c1.9-6-0.9-12.3-6.2-15.1c-0.7-0.3-1.4-0.6-2.1-0.9
	c-0.9-0.3-1.8-0.5-2.6-0.5c0,0-0.1,0-0.1,0c-1.3-0.1-2.6,0-3.9,0.3c-4.3,1-7.9,4.1-9.4,8.6c-0.2,0.5-0.3,1-0.4,1.6
	c0,0.1,0,0.2-0.1,0.3c-0.1,0.4-0.1,0.8-0.1,1.1c0,0.2,0,0.3,0,0.5c0,0.8,0,1.6,0.2,2.4c0.1,0.9,0.3,1.7,0.7,2.5
	c1.3,3.5,4.2,6.4,8.1,7.7c1.3,0.4,2.6,0.6,3.8,0.6c2.5,0,5-0.8,7.1-2.2l5.8,5.8c0.2,0.2,0.5,0.3,0.8,0.3h5.9
	C73.4,48.7,73.5,48.4,73.3,48.2z M50.9,40.3c-2.1-0.7-3.8-2.1-4.9-3.9c-0.4-0.6-0.6-1.2-0.8-1.9c-0.1-0.2-0.1-0.4-0.2-0.6
	c-0.2-0.8-0.3-1.6-0.2-2.4c0-0.5,0.1-1.1,0.2-1.6c0-0.1,0-0.2,0.1-0.3c0-0.1,0.1-0.2,0.1-0.3c0.9-2.8,3-4.8,5.6-5.7
	c0.9-0.3,1.8-0.5,2.8-0.5c0.3,0,0.7,0,1.1,0.1c0,0,0.1,0,0.1,0c0.5,0.1,1,0.2,1.4,0.3c1.3,0.4,2.4,1.1,3.3,1.9
	c2.4,2.2,3.5,5.7,2.4,9.1C60.4,39.2,55.5,41.8,50.9,40.3z"/>
<circle fill="#22AEEB" cx="213.4" cy="19.1" r="3.1"/>
<rect y="9" fill="#22AEEB" width="57.6" height="5"/>
</svg>
